<?xml version="1.0" encoding="UTF-8"?>
<svg xmlns="http://www.w3.org/2000/svg" width="900" height="600" shape-rendering="crispEdges">
  
  
  <defs>
    <pattern id="checker" patternUnits="userSpaceOnUse" width="16" height="16">
      <rect width="16" height="16" fill="#291a2e"/>
      <rect x="0" y="0" width="8" height="8" fill="#2b1b24"/>
      <rect x="8" y="8" width="8" height="8" fill="#2d2d44" />
    </pattern>
  </defs>


  <rect width="900" height="600" fill="url(#checker)"/>


  <g stroke="#450758" stroke-width="3" stroke-linecap="round" fill="#573f69">
    <!-- Row 1 -->
    <rect x="140" y="100" width="100" height="100"/>
    <rect x="280" y="100" width="100" height="100"/>
    <rect x="420" y="100" width="100" height="100"/>
    <rect x="560" y="100" width="100" height="100"/>
    <rect x="700" y="100" width="100" height="100"/>
    <!-- Row 2 -->
    <rect x="140" y="240" width="100" height="100"/>
    <rect x="280" y="240" width="100" height="100"/>
    <rect x="420" y="240" width="100" height="100"/>
    <rect x="560" y="240" width="100" height="100"/>
    <rect x="700" y="240" width="100" height="100"/>
    <!-- Row 3 -->
    <rect x="140" y="380" width="100" height="100"/>
    <rect x="280" y="380" width="100" height="100"/>
    <rect x="420" y="380" width="100" height="100"/>
    <rect x="560" y="380" width="100" height="100"/>
    <rect x="700" y="380" width="100" height="100"/>
  </g>

  <!-- Glowing pixels -->
  <g fill="#c91267" opacity="0.7">
    <rect x="560"  y="279"  width="10" height="10"/>
    <rect x="137" y="320" width="10" height="10"/>
    <rect x="710" y="325" width="10" height="10"/>
    <rect x="335" y="197" width="10" height="10"/>
    <rect x="513" y="460" width="10" height="10"/>
  </g>

  <!-- Pixel flower sprites (8×8) -->
  <g>
    <!-- row 1 -->
    <g transform="translate(300,90)">
      <rect x="3" y="0" width="4" height="4" fill="#ff6b81"/>
      <rect x="0" y="3" width="4" height="4" fill="#ff6b81"/>
      <rect x="6" y="3" width="4" height="4" fill="#ff6b81"/>
      <rect x="3" y="6" width="4" height="4" fill="#ff6b81"/>
      <rect x="3" y="3" width="4" height="4" fill="#f7d794"/>
    </g>
    <g transform="translate(640,190)">
      <rect x="3" y="0" width="4" height="4" fill="#ff6b81"/>
      <rect x="0" y="3" width="4" height="4" fill="#ff6b81"/>
      <rect x="6" y="3" width="4" height="4" fill="#ff6b81"/>
      <rect x="3" y="6" width="4" height="4" fill="#ff6b81"/>
      <rect x="3" y="3" width="4" height="4" fill="#f7d794"/>
    </g>

    <!-- row 2 -->
    <g transform="translate(150,240)">
      <rect x="3" y="0" width="4" height="4" fill="#ff6b81"/>
      <rect x="0" y="3" width="4" height="4" fill="#ff6b81"/>
      <rect x="6" y="3" width="4" height="4" fill="#ff6b81"/>
      <rect x="3" y="6" width="4" height="4" fill="#ff6b81"/>
      <rect x="3" y="3" width="4" height="4" fill="#f7d794"/>
    </g>
    <g transform="translate(510,333)">
      <rect x="3" y="0" width="4" height="4" fill="#ff6b81"/>
      <rect x="0" y="3" width="4" height="4" fill="#ff6b81"/>
      <rect x="6" y="3" width="4" height="4" fill="#ff6b81"/>
      <rect x="3" y="6" width="4" height="4" fill="#ff6b81"/>
      <rect x="3" y="3" width="4" height="4" fill="#f7d794"/>
    </g>

    <!-- row 3 -->
    <g transform="translate(342,470)">
      <rect x="3" y="0" width="4" height="4" fill="#ff6b81"/>
      <rect x="0" y="3" width="4" height="4" fill="#ff6b81"/>
      <rect x="6" y="3" width="4" height="4" fill="#ff6b81"/>
      <rect x="3" y="6" width="4" height="4" fill="#ff6b81"/>
      <rect x="3" y="3" width="4" height="4" fill="#f7d794"/>
    </g>
    <g transform="translate(700,400)">
      <rect x="3" y="0" width="4" height="4" fill="#ff6b81"/>
      <rect x="0" y="3" width="4" height="4" fill="#ff6b81"/>
      <rect x="6" y="3" width="4" height="4" fill="#ff6b81"/>
      <rect x="3" y="6" width="4" height="4" fill="#ff6b81"/>
      <rect x="3" y="3" width="4" height="4" fill="#f7d794"/>
    </g>
  </g>

  <!-- Pixel feather -->
  <g transform="translate(780,130) rotate(-70)">
    <rect x="0"  y="1.5" width="55" height="3" fill="#555"/>
    <rect x="10"  y="0" width="6"  height="6" fill="#eee"/>
    <rect x="20"  y="0" width="6"  height="6" fill="#eee"/>
    <rect x="30"  y="0" width="6"  height="6" fill="#eee"/>
    <rect x="40"  y="0" width="6"  height="6" fill="#eee"/>
  </g>
  <!-- Ghost silhouettes -->
  <g fill="white" opacity="0.2">
    <rect x="150" y="97" width="16" height="16"/>
    <rect x="640" y="470" width="16" height="16"/>
    <rect x="230"  y="450" width="16" height="16"/>
  </g>
  <!-- Ghost silhouettes -->
  <g fill="#e771a4" opacity="0.4">
    <rect x="430" y="180" width="16" height="16"/>
    <rect x="278" y="310" width="16" height="16"/>
  </g>
  <!-- corners -->
  <g fill="white" opacity="0.3">
    <rect x="0" y="0" width="4" height="1"/>
    <rect x="0" y="0" width="1" height="4"/>
    <g transform="translate(896,596)">
      <rect x="0" y="0" width="4" height="1"/>
      <rect x="3" y="-3" width="1" height="4"/>
    </g>
  </g>

</svg>
